<svg xmlns="http://www.w3.org/2000/svg" xmlns:xlink="http://www.w3.org/1999/xlink" width="1280" height="800" version="1.1" viewBox="0 0 1280 800"><title>Vowels Positions</title><g id="Page-1" fill="none" fill-rule="evenodd" stroke="none" stroke-width="1"><g id="Speech-Tract-" transform="translate(-1377, -30)"><g id="Vowels-Positions" transform="translate(1377, 30)"><rect id="Rectangle" width="1280" height="800" x="0" y="0"/><g id="Group" stroke="#979797" stroke-dasharray="5 10" stroke-linecap="square" transform="translate(263, 114)"><line id="Line" x1=".5" x2="800.5" y1=".5" y2=".5"/><line id="Line-Copy" x1="400.5" x2="800.5" y1="569.5" y2="569.5"/><line id="Line-4" x1="800.5" x2="800.5" y1=".5" y2="569.5"/><line id="Line-5" x1="801.5" x2="133.5" y1="192.5" y2="192.5"/><line id="Line-5-Copy" x1="801.5" x2="268.5" y1="381.5" y2="380.5"/><line id="Line-2" x1=".5" x2="400.5" y1=".5" y2="569.5"/><line id="Line-3" x1="400.5" x2="600.5" y1=".5" y2="569.5"/></g><text id="ɪ" fill="#000" font-family="Sauce Code Pro" font-size="32" font-weight="normal"><tspan x="251" y="127">ɪ</tspan></text><text id="e" fill="#000" font-family="Sauce Code Pro" font-size="32" font-weight="normal"><tspan x="386" y="315">e</tspan></text><text id="æ" fill="#000" font-family="Sauce Code Pro" font-size="32" font-weight="normal"><tspan x="651" y="692">æ</tspan></text><text id="ə" fill="#000" font-family="Sauce Code Pro" font-size="32" font-weight="normal"><tspan x="753" y="410">ə</tspan></text><text id="ʌ" fill="#000" font-family="Sauce Code Pro" font-size="32" font-weight="normal"><tspan x="1053" y="504">ʌ</tspan></text><text id="ɔ" fill="#000" font-family="Sauce Code Pro" font-size="32" font-weight="normal"><tspan x="1053" y="695">ɔ</tspan></text><text id="u" fill="#000" font-family="Sauce Code Pro" font-size="32" font-weight="normal"><tspan x="1053" y="127">u</tspan></text><text id="High" fill="#000" font-family="Sauce Code Pro" font-size="32" font-weight="normal"><tspan x="619" y="84">High</tspan></text><text id="Back" fill="#000" font-family="Sauce Code Pro" font-size="32" font-weight="normal" transform="translate(1099, 392) rotate(90) translate(-1099, -392)"><tspan x="1050.5" y="402.5">Back</tspan></text></g></g></g></svg>